<?xml version="1.0" encoding="utf-8"?>
<!-- Generator: Adobe Illustrator 16.0.0, SVG Export Plug-In . SVG Version: 6.00 Build 0)  -->
<!DOCTYPE svg PUBLIC "-//W3C//DTD SVG 1.1//EN" "http://www.w3.org/Graphics/SVG/1.1/DTD/svg11.dtd">
<svg version="1.1" id="Layer_1" xmlns="http://www.w3.org/2000/svg" xmlns:xlink="http://www.w3.org/1999/xlink" x="0px" y="0px"
	 width="465.564px" height="438.983px" viewBox="0 0 465.564 438.983" enable-background="new 0 0 465.564 438.983"
	 xml:space="preserve">
<path fill-rule="evenodd" clip-rule="evenodd" fill="#929083" d="M233.76,435.804c-47.519,0.202-92.996-6.91-134.81-31.761
	c-23.776-14.131-34-28.316-7.998-49.699c5.12-4.217,9.219-9.68,13.72-14.637c12.716-13.992,23.089-34.689,38.751-40.149
	c15.578-5.425,26.053,19.887,42.399,26.852c27.474,11.705,54.748,17.883,84.18,7.313c12.465-4.484,23.676-10.383,23.76-24.396
	c0.083-13.432-9.923-23.311-21.837-27.051c-24.311-7.617-49.309-13.105-74.089-19.138c-88.697-21.58-118.749-54.221-117.51-127.921
	C81.416,70.17,126.006,21.001,203.358,7.361C263.395-3.234,323.462-0.207,378.06,32.803c21.064,12.737,33.715,26.816,6.408,46.662
	c-6.258,4.534-11.663,10.482-16.632,16.473c-20.731,25.035-39.522,45.615-73.873,14.024c-13.971-12.842-38.617-15.728-60.419-6.211
	c-13.035,5.698-24.765,11.808-25.065,27.625c-0.301,15.862,10.256,24.111,24.312,27.75c27.925,7.246,56.069,13.658,84.029,20.803
	c100.66,25.725,140.601,125.632,78.959,199.355c-29.583,35.384-71.529,47.603-115.283,53.861
	C265.101,435.352,249.34,434.983,233.76,435.804z"/>
</svg>
