<?xml version="1.0" encoding="utf-8"?>
<!-- Generator: Adobe Illustrator 16.0.0, SVG Export Plug-In . SVG Version: 6.00 Build 0)  -->
<!DOCTYPE svg PUBLIC "-//W3C//DTD SVG 1.1//EN" "http://www.w3.org/Graphics/SVG/1.1/DTD/svg11.dtd">
<svg version="1.1" id="Layer_1" xmlns="http://www.w3.org/2000/svg" xmlns:xlink="http://www.w3.org/1999/xlink" x="0px" y="0px"
	 width="465.564px" height="438.983px" viewBox="0 0 465.564 438.983" enable-background="new 0 0 465.564 438.983"
	 xml:space="preserve">
<path fill-rule="evenodd" clip-rule="evenodd" fill="#929083" d="M158.819,58.282C210.171,0.789,271.368-6.355,336.473,9.403
	c61.044,14.781,94.973,61.218,97.937,138.211c3.398,88.211,0.833,176.643,1.615,264.968c0.151,16.85-6.754,21.386-22.215,20.927
	c-27.15-0.798-54.436-1.529-81.5,0.204c-21.543,1.393-26.826-6.817-26.503-27.196c1.087-69.067,1.257-138.173,0.118-207.237
	c-1.054-63.541-32.706-90.733-89.01-79.028c-33.937,7.056-52.914,35.556-53.424,83.751c-0.713,65.678-1.24,131.394,0.34,197.042
	c0.594,24.371-4.485,35.538-31.312,32.65c-31.261-3.348-71.701,12.486-91.97-5.985c-20.822-18.978-6.202-59.896-6.507-91.111
	c-0.985-98.519,0.424-197.06-0.917-295.574c-0.341-24.151,6.915-32.637,30.53-30.021c14.544,1.609,29.5,1.283,44.127,0.145
	C139.621,8.672,168.282,8.83,158.819,58.282z"/>
</svg>
