<?xml version="1.0" encoding="utf-8"?>
<!-- Generator: Adobe Illustrator 16.0.0, SVG Export Plug-In . SVG Version: 6.00 Build 0)  -->
<!DOCTYPE svg PUBLIC "-//W3C//DTD SVG 1.1//EN" "http://www.w3.org/Graphics/SVG/1.1/DTD/svg11.dtd">
<svg version="1.1" id="Layer_1" xmlns="http://www.w3.org/2000/svg" xmlns:xlink="http://www.w3.org/1999/xlink" x="0px" y="0px"
	 width="465.564px" height="438.983px" viewBox="0 0 465.564 438.983" enable-background="new 0 0 465.564 438.983"
	 xml:space="preserve">
<path fill-rule="evenodd" clip-rule="evenodd" fill="#929183" d="M231.817,71.816c35.342-55.848,82.349-73.467,140.682-67.822
	c17.637,1.707,25.077,7.202,22.94,24.685c-0.41,3.374,0.051,6.847,0.034,10.268c-0.154,25.108,7.681,54.273-2.48,74.322
	c-13.498,26.627-43.759,1.492-67.04,4.836c-65.056,9.335-86.678,28.542-95.146,94.482c-8.314,64.824-2.702,129.936-3.268,194.901
	c-0.171,21.648-5.131,31.505-28.482,29.453c-32.758-2.874-74.976,13.274-96.137-5.949c-21.742-19.758-6.5-62.579-6.842-95.206
	c-1.061-94.746,1.351-189.563-1.283-284.246c-0.975-34.576,10.314-44.827,42.2-39.973c10.059,1.535,20.528,0.244,30.792,0.244
	C222.409,11.803,222.409,11.803,231.817,71.816z"/>
</svg>
