<?xml version="1.0" encoding="utf-8"?>
<!-- Generator: Adobe Illustrator 16.0.0, SVG Export Plug-In . SVG Version: 6.00 Build 0)  -->
<!DOCTYPE svg PUBLIC "-//W3C//DTD SVG 1.1//EN" "http://www.w3.org/Graphics/SVG/1.1/DTD/svg11.dtd">
<svg version="1.1" id="Layer_1" xmlns="http://www.w3.org/2000/svg" xmlns:xlink="http://www.w3.org/1999/xlink" x="0px" y="0px"
	 width="465.564px" height="438.983px" viewBox="0 0 465.564 438.983" enable-background="new 0 0 465.564 438.983"
	 xml:space="preserve">
<path fill-rule="evenodd" clip-rule="evenodd" fill="#929083" d="M173.24,258.638c41.298,1.252,82.647,0.373,123.979,0.355
	c22.321-0.02,44.662-0.006,67.001-0.027c89.021-0.063,96.133-9.488,77.141-98.088C423.874,79.39,379.598,20.011,295.043,6.397
	c-92.185-14.838-176.555,6.334-234.52,87.158C-0.957,179.247,10.473,300.573,84.1,372.767
	c76.79,75.285,216.365,85.34,302.325,19.846c49.08-37.383,48.326-34.73-1.423-69.596c-6.392-4.484-13.487-8.332-18.875-13.83
	c-18.14-18.545-31.56-18-51.707,1.494c-49.632,48.037-132.964,31.053-156.642-28.756
	C151.201,265.315,152.574,258.011,173.24,258.638z M152.507,171.867c8.216-47.561,31.71-70.381,76.255-76.187
	c34.086-4.443,67.653,13.566,81.794,43.938c9.053,19.428,11.596,33.555-18.475,32.63
	C245.729,170.821,199.311,171.867,152.507,171.867z"/>
</svg>
