<?xml version="1.0" encoding="utf-8"?>
<!-- Generator: Adobe Illustrator 16.0.0, SVG Export Plug-In . SVG Version: 6.00 Build 0)  -->
<!DOCTYPE svg PUBLIC "-//W3C//DTD SVG 1.1//EN" "http://www.w3.org/Graphics/SVG/1.1/DTD/svg11.dtd">
<svg version="1.1" id="Layer_1" xmlns="http://www.w3.org/2000/svg" xmlns:xlink="http://www.w3.org/1999/xlink" x="0px" y="0px"
	 width="465.564px" height="438.983px" viewBox="0 0 465.564 438.983" enable-background="new 0 0 465.564 438.983"
	 xml:space="preserve">
<path fill-rule="evenodd" clip-rule="evenodd" fill="#B4B2A5" d="M63.673,406.246c-0.118-3.79-0.338-7.576-0.338-11.367
	c-0.022-88.195,0.075-176.39-0.203-264.582c-0.023-7.25,2-10.962,8.665-14.114c62.195-29.42,124.197-59.249,186.288-88.889
	c17.584-8.394,35.276-16.559,52.922-24.829c3.062,3.657,2.682,8.083,2.688,12.388c0.04,25.965,0.028,51.929,0.009,77.894
	c-0.006,4.879,0.121,9.735,1.198,14.501c0.433,3.348-2.203,3.823-4.437,4.757c-30.524,12.756-60.358,27.055-90.415,40.838
	c-22.673,10.398-45.527,20.415-68.007,31.236c-2.883,1.387-6.328,2.049-7.222,5.874c-1.652,22.772-0.348,45.554-0.666,68.321
	c-0.088,6.286,3.748,3.75,6.505,2.322c15.177-7.865,31.092-14.187,46.192-22.21c4.073-2.163,8.306-4.003,12.762-5.277
	c4.402-1.261,6.735,0.548,7.415,4.905c0.336,2.153,0.365,4.323,0.369,6.491c0.059,30.646-0.075,61.295,0.117,91.934
	c-0.684,2.871-3.294,3.299-5.475,4.249c-36.983,16.184-73.554,33.267-110.144,50.303c-10.563,4.918-21.302,9.439-31.916,14.239
	C67.968,406.141,65.893,406.633,63.673,406.246z"/>
<path fill-rule="evenodd" clip-rule="evenodd" fill="#929083" d="M143.497,187.658c5.264-7.227,14.087-8.339,21.353-11.799
	c30.526-14.537,61.439-28.261,92.185-42.339c15.255-6.984,30.431-14.137,45.692-21.106c3.683-1.679,7.516-3.125,11.719-2.818
	c2.052-1.602,4.122-0.675,6.135,0.03c22.165,7.758,43.968,16.491,66.036,24.515c2.867,1.042,6.47,2.005,5.878,6.462
	c-55.857,25.598-111.714,51.195-167.569,76.793c-2.973,1.936-5.84,0.504-8.563-0.503c-22.653-8.384-45.26-16.893-67.881-25.366
	C146.449,190.765,144.419,189.898,143.497,187.658z"/>
<path fill-rule="evenodd" clip-rule="evenodd" fill="#929083" d="M63.673,406.246c38.076-17.487,76.153-34.967,114.226-52.461
	c8.355-3.839,16.708-7.684,25.037-11.579c4.408-2.065,8.737-4.319,13.757-4.493c3.068-1.352,5.88,0.023,8.614,1.028
	c21.339,7.828,42.673,15.687,63.872,23.89c3.005,1.165,7.179,1.434,7.409,6.151c-48.673,22.376-97.355,44.732-145.992,67.19
	c-2.93,1.349-5.633,1.74-8.585,0.631c-25.558-9.592-51.114-19.181-76.656-28.815C64.694,407.539,64.229,406.771,63.673,406.246z"/>
<path fill-rule="evenodd" clip-rule="evenodd" fill="#FE5852" d="M316.731,189.426c17.834,5.522,34.453,14.072,51.807,20.8
	c6.8,2.638,13.339,5.99,20.221,8.367c4.389,1.517,5.601,3.857,5.571,8.311c-0.207,32.001-0.154,64.006-0.183,96.01
	c-2.497,2.029-5.063,1.045-7.605,0.142c-24.417-8.683-48.344-18.694-72.968-26.825c-1.965-0.648-4.296-1.129-4.703-3.844
	c-0.597-31.073-0.284-62.138-0.224-93.201C308.664,189.889,309.686,188.967,316.731,189.426z"/>
<path fill-rule="evenodd" clip-rule="evenodd" fill="#CFCBBF" d="M392.494,140.602c-4.565-6.158-12.158-6.336-18.417-8.824
	c-19.704-7.826-39.73-14.849-59.632-22.182c-3.978-2.43-3.276-6.374-3.284-10.1c-0.046-32.345-0.102-64.689-0.154-97.034
	c26.185,10.81,52.366,21.625,78.559,32.413c2.996,1.235,4.735,2.94,4.72,6.603c-0.121,31.934-0.072,63.869-0.08,95.803
	C394.205,138.666,393.997,139.975,392.494,140.602z"/>
<path fill-rule="evenodd" clip-rule="evenodd" fill="#CFCBC0" d="M296.589,368.782c-12.871-7.616-27.429-11.065-41.161-16.551
	c-12.803-5.112-25.813-9.7-38.735-14.519c-2.173-3.152-1.684-6.752-1.686-10.254c-0.011-28.78-0.162-57.563,0.115-86.341
	c0.066-6.772-1.29-8.013-7.6-4.901c-18.712,9.229-37.675,17.952-56.54,26.87c-2.65,1.255-5.305,2.502-9.286,4.379
	c0-6.838,0-12.648,0-18.462c0-17.648-0.041-35.299,0.042-52.945c0.013-2.862-1-6.061,1.758-8.399
	c27.143,9.912,54.286,19.823,81.428,29.736c-0.942,19.974-0.941,19.972,17.47,27.211c1.752,0.688,3.499,1.387,5.25,2.081
	c2.979,3.089,2.426,7.038,2.45,10.76c0.108,15.972,0.021,31.947,0.06,47.923c0.008,4.044-0.255,8.14,1.325,11.999
	c1.364,3.758,4.697,4.922,8.028,6.189c10.37,3.946,20.758,7.851,31.08,11.916c2.963,1.168,6.319,1.957,7.52,5.569
	C297.245,350.271,299.929,359.69,296.589,368.782z"/>
<path fill-rule="evenodd" clip-rule="evenodd" fill="#DC544E" d="M250.993,320.277c-4.7-1.302-2.978-5.21-3.008-8.089
	c-0.22-21.834-0.252-43.669-0.342-65.503c0.158-8.073,0.579-16.152,0.378-24.217c-0.111-4.458,1.599-6.75,5.527-8.598
	c17.767-8.347,35.447-16.876,53.054-25.557c3.879-1.912,7.056-2.105,10.126,1.112c-4.945-0.412-5.661,2.459-5.639,6.598
	c0.163,30.895,0.092,61.793,0.402,92.688c0.022,2.309-0.501,3.428-1.994,4.615c-2.132,4.34-6.694,5.255-10.456,7.072
	c-13.598,6.585-27.469,12.59-41.142,19.02C255.729,320.439,253.5,321.66,250.993,320.277z"/>
<path fill-rule="evenodd" clip-rule="evenodd" fill="#E6E3DA" d="M250.993,320.277c19.501-8.983,39.004-17.966,58.505-26.95
	c15.202,3.021,29.034,10.029,43.569,14.995c13.755,4.695,26.941,10.979,41.08,14.591c-7.61,5.591-16.773,8.077-25.021,12.437
	c-8.064,4.262-17.35,6.499-24.836,11.505c-10.17,6.804-19.072,3.904-28.583-0.288c-5.643-2.485-11.316-5.019-17.602-5.522
	c-13.473-5.333-26.939-10.676-40.42-15.983C255.041,324.016,251.633,324.101,250.993,320.277z"/>
</svg>
