<?xml version="1.0" encoding="utf-8"?>
<!-- Generator: Adobe Illustrator 16.0.0, SVG Export Plug-In . SVG Version: 6.00 Build 0)  -->
<!DOCTYPE svg PUBLIC "-//W3C//DTD SVG 1.1//EN" "http://www.w3.org/Graphics/SVG/1.1/DTD/svg11.dtd">
<svg version="1.1" id="Layer_1" xmlns="http://www.w3.org/2000/svg" xmlns:xlink="http://www.w3.org/1999/xlink" x="0px" y="0px"
	 width="960px" height="560px" viewBox="0 0 960 560" enable-background="new 0 0 960 560" xml:space="preserve">
<g>
	<path fill-rule="evenodd" clip-rule="evenodd" fill="#B4B2A5" d="M142.217,326.626c-0.057-1.82-0.163-3.639-0.163-5.459
		c-0.011-42.355,0.036-84.71-0.097-127.063c-0.011-3.481,0.96-5.264,4.161-6.778c29.869-14.128,59.645-28.454,89.463-42.688
		c8.444-4.031,16.941-7.952,25.415-11.924c1.471,1.756,1.288,3.882,1.291,5.95c0.019,12.469,0.014,24.938,0.003,37.408
		c-0.002,2.343,0.06,4.675,0.577,6.964c0.208,1.608-1.059,1.836-2.131,2.284c-14.659,6.126-28.985,12.993-43.42,19.612
		c-10.889,4.994-21.864,9.804-32.66,15.001c-1.384,0.666-3.039,0.984-3.468,2.821c-0.793,10.936-0.167,21.877-0.32,32.811
		c-0.042,3.019,1.8,1.801,3.124,1.115c7.289-3.777,14.932-6.813,22.184-10.666c1.956-1.039,3.989-1.922,6.129-2.535
		c2.114-0.605,3.234,0.263,3.561,2.355c0.162,1.034,0.175,2.076,0.177,3.118c0.028,14.718-0.036,29.436,0.056,44.15
		c-0.329,1.379-1.582,1.584-2.629,2.041c-17.761,7.771-35.324,15.976-52.896,24.157c-5.073,2.361-10.23,4.533-15.327,6.838
		C144.28,326.575,143.283,326.812,142.217,326.626z"/>
	<path fill-rule="evenodd" clip-rule="evenodd" fill="#929083" d="M180.552,221.65c2.528-3.47,6.765-4.005,10.254-5.667
		c14.66-6.981,29.505-13.572,44.271-20.333c7.326-3.354,14.615-6.789,21.944-10.136c1.768-0.807,3.608-1.5,5.627-1.354
		c0.985-0.769,1.979-0.324,2.947,0.014c10.644,3.726,21.115,7.92,31.712,11.773c1.378,0.5,3.108,0.963,2.824,3.104
		c-26.825,12.293-53.65,24.586-80.474,36.879c-1.428,0.929-2.805,0.242-4.112-0.242c-10.879-4.026-21.736-8.112-32.599-12.182
		C181.97,223.143,180.995,222.726,180.552,221.65z"/>
	<path fill-rule="evenodd" clip-rule="evenodd" fill="#929083" d="M142.217,326.626c18.286-8.398,36.572-16.793,54.856-25.194
		c4.013-1.844,8.024-3.689,12.024-5.561c2.117-0.992,4.196-2.074,6.607-2.158c1.474-0.648,2.824,0.012,4.137,0.494
		c10.249,3.76,20.493,7.533,30.674,11.473c1.444,0.56,3.447,0.688,3.559,2.954c-23.375,10.746-46.754,21.482-70.112,32.268
		c-1.407,0.648-2.705,0.836-4.123,0.303c-12.274-4.605-24.547-9.211-36.813-13.838C142.708,327.247,142.484,326.878,142.217,326.626
		z"/>
	<path fill-rule="evenodd" clip-rule="evenodd" fill="#FE5852" d="M263.746,222.5c8.564,2.652,16.546,6.758,24.88,9.989
		c3.266,1.267,6.406,2.876,9.711,4.018c2.107,0.728,2.689,1.852,2.675,3.991c-0.099,15.369-0.074,30.739-0.087,46.108
		c-1.199,0.975-2.432,0.502-3.652,0.068c-11.727-4.17-23.218-8.978-35.042-12.883c-0.944-0.312-2.063-0.542-2.258-1.846
		c-0.288-14.923-0.137-29.841-0.108-44.759C259.873,222.722,260.362,222.279,263.746,222.5z"/>
	<path fill-rule="evenodd" clip-rule="evenodd" fill="#CFCBBF" d="M300.131,199.052c-2.192-2.958-5.838-3.043-8.845-4.237
		c-9.463-3.758-19.08-7.131-28.638-10.653c-1.91-1.167-1.574-3.061-1.577-4.85c-0.023-15.533-0.049-31.066-0.074-46.6
		c12.575,5.191,25.148,10.385,37.727,15.566c1.438,0.593,2.273,1.412,2.267,3.171c-0.059,15.336-0.035,30.672-0.04,46.008
		C300.952,198.123,300.852,198.751,300.131,199.052z"/>
	<path fill-rule="evenodd" clip-rule="evenodd" fill="#CFCBC0" d="M254.073,308.634c-6.182-3.657-13.173-5.313-19.767-7.948
		c-6.148-2.455-12.397-4.658-18.603-6.973c-1.044-1.514-0.809-3.242-0.81-4.924c-0.005-13.822-0.078-27.644,0.055-41.464
		c0.032-3.252-0.62-3.849-3.65-2.354c-8.986,4.433-18.093,8.621-27.153,12.904c-1.273,0.602-2.547,1.201-4.459,2.103
		c0-3.284,0-6.075,0-8.866c0-8.476-0.02-16.952,0.02-25.426c0.006-1.375-0.48-2.911,0.844-4.034
		c13.035,4.76,26.07,9.52,39.105,14.28c-0.453,9.592-0.452,9.591,8.39,13.068c0.841,0.331,1.68,0.666,2.521,0.999
		c1.431,1.484,1.166,3.38,1.177,5.167c0.052,7.671,0.01,15.343,0.028,23.014c0.004,1.943-0.122,3.91,0.637,5.763
		c0.655,1.805,2.256,2.363,3.855,2.973c4.98,1.895,9.968,3.77,14.926,5.723c1.423,0.561,3.035,0.939,3.611,2.674
		C254.388,299.744,255.677,304.268,254.073,308.634z"/>
	<path fill-rule="evenodd" clip-rule="evenodd" fill="#929083" d="M839.837,276.762c-19.492-0.139-31.408-16.659-24.953-34.603
		c3.459-9.622,12.781-15.636,24.619-15.884c12.746-0.267,23.307,6.703,26.303,17.361
		C870.858,261.608,858.874,276.895,839.837,276.762z"/>
	<path fill-rule="evenodd" clip-rule="evenodd" fill="#929083" d="M418.815,276.764c-12.643-0.119-22.615-6.683-25.418-17.404
		c-5.053-19.322,7.943-33.792,26.738-33.055c13.781,0.541,24.385,9.333,25.537,21.195
		C447.368,264.948,436.37,276.93,418.815,276.764z"/>
	<path fill-rule="evenodd" clip-rule="evenodd" fill="#929083" d="M645.29,256.194c-4.824,0.002-9.65,0.104-14.471-0.042
		c-2.412-0.073-2.572,0.779-1.805,2.718c2.764,6.981,12.49,8.963,18.283,3.356c2.352-2.275,3.918-2.339,6.035-0.174
		c0.629,0.642,1.457,1.091,2.203,1.614c5.807,4.069,5.895,3.76,0.166,8.123c-10.033,7.644-26.324,6.47-35.287-2.316
		c-8.594-8.426-9.928-22.587-2.752-32.589c6.766-9.434,16.613-11.905,27.373-10.173c9.869,1.589,15.037,8.52,17.078,18.031
		c2.217,10.341,1.387,11.441-9.004,11.449C650.503,256.193,647.896,256.192,645.29,256.194z"/>
	<path fill-rule="evenodd" clip-rule="evenodd" fill="#929083" d="M488.215,232.645c5.903-6.609,12.938-7.431,20.423-5.619
		c7.018,1.699,10.918,7.038,11.259,15.889c0.391,10.141,0.096,20.307,0.186,30.46c0.018,1.937-0.776,2.458-2.554,2.405
		c-3.121-0.092-6.258-0.176-9.369,0.024c-2.477,0.159-3.084-0.784-3.047-3.127c0.125-7.94,0.145-15.884,0.014-23.824
		c-0.121-7.305-3.76-10.431-10.232-9.085c-3.901,0.811-6.083,4.087-6.142,9.628c-0.082,7.55-0.143,15.105,0.039,22.652
		c0.068,2.802-0.516,4.085-3.6,3.754c-3.594-0.386-8.243,1.435-10.573-0.688c-2.394-2.182-0.713-6.886-0.748-10.474
		c-0.113-11.326,0.049-22.654-0.105-33.979c-0.039-2.776,0.795-3.752,3.51-3.451c1.672,0.185,3.391,0.147,5.073,0.017
		C486.008,226.941,489.303,226.959,488.215,232.645z"/>
	<path fill-rule="evenodd" clip-rule="evenodd" fill="#DC544E" d="M232.176,285.34c-2.257-0.625-1.43-2.502-1.444-3.885
		c-0.106-10.485-0.122-20.972-0.165-31.457c0.077-3.877,0.279-7.757,0.182-11.63c-0.054-2.141,0.767-3.242,2.655-4.129
		c8.532-4.009,17.023-8.105,25.479-12.273c1.862-0.918,3.388-1.011,4.862,0.534c-2.374-0.197-2.718,1.181-2.708,3.169
		c0.078,14.837,0.043,29.675,0.193,44.512c0.011,1.11-0.241,1.646-0.958,2.217c-1.024,2.083-3.214,2.523-5.021,3.397
		c-6.53,3.161-13.192,6.045-19.758,9.133C234.45,285.418,233.38,286.004,232.176,285.34z"/>
	<path fill-rule="evenodd" clip-rule="evenodd" fill="#929083" d="M766.181,276.803c-5.547-0.004-10.854-0.863-15.707-3.813
		c-2.615-1.589-3.646-3.194-0.895-5.547c0.393-0.336,0.705-0.768,1.059-1.15c1.59-1.721,2.891-4.002,4.85-5.017
		c2.436-1.262,3.447,2.171,5.549,2.885c3.152,1.07,6.154,1.967,9.465,0.769c1.439-0.521,2.77-1.133,2.893-2.764
		c0.123-1.633-1.115-2.729-2.443-3.215c-2.303-0.843-4.734-1.337-7.113-1.978c-1.752-0.471-3.52-0.892-5.25-1.424
		c-5.346-1.643-9.32-4.667-10.059-10.627c-0.809-6.532,1.205-12.153,7.061-15.32c9.359-5.062,18.91-4.694,28.225,0.586
		c2.338,1.325,3.041,2.707,0.559,4.585c-0.619,0.467-1.152,1.06-1.666,1.647c-2.744,3.132-5.293,6.272-9.813,2.07
		c-1.238-1.151-3.572-1.452-5.607-0.733c-1.758,0.619-3.654,1.119-3.848,3.334c-0.203,2.345,1.697,3.098,3.447,3.597
		c3.861,1.101,7.83,1.844,11.658,3.043c9.422,2.952,13.158,13.845,7.385,21.764c-3.359,4.608-8.486,6.25-13.9,6.995
		C770.101,276.754,768.13,276.708,766.181,276.803z"/>
	<path fill-rule="evenodd" clip-rule="evenodd" fill="#929083" d="M566.065,276.805c-5.547,0.023-10.855-0.807-15.736-3.707
		c-2.775-1.649-3.969-3.305-0.934-5.801c0.598-0.492,1.076-1.13,1.602-1.708c1.484-1.633,2.695-4.049,4.523-4.687
		c1.818-0.633,3.041,2.321,4.949,3.134c3.207,1.366,6.391,2.087,9.826,0.854c1.455-0.523,2.764-1.212,2.773-2.848
		c0.01-1.568-1.158-2.721-2.549-3.158c-2.838-0.889-5.756-1.53-8.648-2.234c-10.354-2.519-13.861-6.329-13.717-14.932
		c0.127-7.593,5.332-13.332,14.361-14.924c7.008-1.237,14.02-0.883,20.393,2.97c2.459,1.487,3.936,3.13,0.748,5.447
		c-0.73,0.529-1.361,1.224-1.941,1.923c-2.42,2.922-4.613,5.325-8.623,1.637c-1.631-1.499-4.508-1.836-7.053-0.725
		c-1.521,0.665-2.891,1.378-2.926,3.225c-0.035,1.852,1.197,2.814,2.838,3.239c3.26,0.846,6.545,1.594,9.809,2.428
		c11.75,3.003,16.412,14.665,9.217,23.271c-3.453,4.13-8.35,5.556-13.457,6.288C569.724,276.753,567.884,276.71,566.065,276.805z"/>
	<path fill-rule="evenodd" clip-rule="evenodd" fill="#929183" d="M353.836,226.277c4.326-0.024,9.503,1.253,14.112,4.639
		c1.714,1.259,1.871,2.219,0.304,3.63c-1.256,1.131-2.458,2.34-3.554,3.625c-2.455,2.879-4.336,5.335-8.866,2.069
		c-3.816-2.752-10.269-0.127-12.97,3.947c-3.203,4.833-2.638,12.396,1.219,16.307c3.491,3.54,9.76,4.19,13.956,1.153
		c1.56-1.128,2.435-1.329,3.764,0.188c2.057,2.348,4.231,4.61,6.524,6.726c1.669,1.541,1.258,2.447-0.393,3.56
		c-9.042,6.091-18.64,6.216-28.188,1.89c-9.092-4.118-13.314-11.599-13.881-21.693C325.057,237.945,336.484,226.002,353.836,226.277
		z"/>
	<path fill-rule="evenodd" clip-rule="evenodd" fill="#E6E3DA" d="M232.176,285.34c9.365-4.314,18.731-8.628,28.097-12.942
		c7.301,1.451,13.944,4.816,20.924,7.201c6.604,2.255,12.938,5.273,19.728,7.007c-3.655,2.686-8.056,3.879-12.016,5.973
		c-3.873,2.047-8.332,3.121-11.928,5.525c-4.883,3.268-9.159,1.875-13.726-0.139c-2.71-1.193-5.435-2.41-8.453-2.652
		c-6.47-2.561-12.938-5.127-19.411-7.676C234.12,287.135,232.484,287.176,232.176,285.34z"/>
	<path fill-rule="evenodd" clip-rule="evenodd" fill="#929183" d="M706.218,234.1c4.035-6.376,9.402-8.388,16.063-7.744
		c2.014,0.195,2.863,0.822,2.619,2.818c-0.047,0.385,0.006,0.782,0.004,1.172c-0.018,2.867,0.877,6.197-0.283,8.486
		c-1.541,3.04-4.996,0.17-7.654,0.552c-7.428,1.066-9.896,3.259-10.863,10.788c-0.949,7.401-0.309,14.835-0.373,22.253
		c-0.02,2.472-0.586,3.597-3.252,3.362c-3.74-0.328-8.561,1.516-10.977-0.679c-2.482-2.256-0.742-7.145-0.781-10.87
		c-0.121-10.818,0.154-21.644-0.146-32.454c-0.111-3.948,1.178-5.118,4.818-4.564c1.148,0.175,2.344,0.028,3.516,0.028
		C705.144,227.248,705.144,227.248,706.218,234.1z"/>
	<path fill-rule="evenodd" clip-rule="evenodd" fill="#B5B4AA" d="M324.361,310.253c-0.781-10.53,10.9-14.872,17.269-11.011
		c1.02,0.617,2.851,1.273,1.947,2.791c-1.032,1.734-1.892-0.236-2.733-0.721c-4.008-2.305-9.357-1.473-12.046,1.938
		c-3.167,4.019-2.995,10.853,0.363,14.386c3,3.158,8.465,3.641,12.15,1.104c0.858-0.592,1.715-2.287,2.839-0.822
		c1.269,1.654-0.68,2.189-1.626,2.809c-4.113,2.701-8.338,2.418-12.524,0.152C325.742,318.573,324.171,314.813,324.361,310.253z"/>
	<path fill-rule="evenodd" clip-rule="evenodd" fill="#B5B4A9" d="M589.794,322.683c-1.65-0.129-3.615-0.783-5.355-1.959
		c-0.65-0.439-1.838-0.951-1-2.082c0.66-0.889,1.645-0.814,2.367-0.041c1.361,1.463,3.008,1.879,4.934,1.758
		c2.17-0.137,3.779-0.996,4.336-3.193c0.609-2.408-0.568-4.057-2.631-5.047c-1.51-0.725-3.182-1.1-4.721-1.768
		c-2.736-1.189-4.432-3.242-4.285-6.325c0.131-2.717,1.734-4.518,4.219-5.557c2.877-1.201,5.576-0.818,8.096,0.943
		c0.652,0.457,1.229,1.084,0.656,1.945c-0.605,0.91-1.27,0.529-1.936-0.023c-1.258-1.043-2.725-1.537-4.348-1.271
		c-2.021,0.33-3.799,1.158-4.287,3.367c-0.531,2.414,0.773,4.009,2.824,4.974c1.396,0.656,2.904,1.102,4.391,1.547
		c3.797,1.139,5.059,3.738,4.418,7.475C596.944,320.507,593.897,322.724,589.794,322.683z"/>
	<path fill-rule="evenodd" clip-rule="evenodd" fill="#B6B4AA" d="M728.249,297.752c1.553,0.197,3.303,0.658,4.863,1.652
		c0.646,0.412,1.396,0.965,0.859,1.869c-0.594,1.008-1.463,1.016-2.248,0.189c-1.543-1.623-3.445-1.715-5.418-1.24
		c-1.953,0.469-3.266,1.805-3.459,3.775c-0.174,1.801,0.742,3.282,2.475,4.038c1.424,0.623,2.889,1.156,4.352,1.678
		c4.004,1.43,5.863,3.91,5.268,7.08c-0.707,3.75-3.975,6.186-8.029,5.859c-1.824-0.146-3.58-0.674-5.066-1.816
		c-0.666-0.512-1.855-0.918-1.086-2.072c0.66-0.994,1.527-0.703,2.305,0.025c1.547,1.457,3.439,1.75,5.449,1.506
		c2.369-0.287,3.773-1.736,4.172-4c0.393-2.223-1.164-3.316-2.914-4.072c-1.305-0.564-2.705-0.898-4.037-1.402
		c-3.775-1.434-5.689-4.172-5.16-7.312C721.108,300.336,724.286,297.867,728.249,297.752z"/>
	<path fill-rule="evenodd" clip-rule="evenodd" fill="#B4B3AA" d="M839.62,308.255c0.859-3.769-0.475-7.54,0.824-11.124
		c1.379,0.393,1.111,1.313,1.115,1.994c0.031,6.75,0.061,13.501-0.023,20.249c-0.012,0.951,0.777,3.867-1.988,1.398
		c-0.734-0.656-1.406,0.27-2.08,0.537c-4.295,1.699-8.398,0.902-10.467-2.051c-1.934-2.762-1.756-7.758,0.363-10.178
		c2.963-3.378,6.428-3.706,11.152-1.068C838.724,308.128,838.997,308.124,839.62,308.255z"/>
	<path fill-rule="evenodd" clip-rule="evenodd" fill="#B5B4A9" d="M526.266,322.548c-4.186-0.508-6.987-1.949-8.083-5.783
		c-1.002-3.508-0.191-6.598,2.507-8.797c2.898-2.364,6.219-2.388,9.407-0.168c2.057,1.43,2.879,3.504,2.322,5.783
		c-0.594,2.426-2.832,1.064-4.324,1.246c-1.798,0.217-3.644,0.006-5.466,0.074c-0.834,0.033-1.938-0.418-2.379,0.74
		c-0.379,0.996,0.352,1.725,0.863,2.461c1.893,2.715,4.684,3.064,8.274,1.047c0.701-0.395,1.391-1.686,2.182-0.381
		c0.586,0.965-0.297,1.783-1.121,2.164C528.933,321.636,527.33,322.147,526.266,322.548z"/>
	<path fill-rule="evenodd" clip-rule="evenodd" fill="#B4B3A9" d="M609.606,314.88c-1.043-0.002-2.092-0.08-3.125,0.021
		c-0.965,0.094-2.381-0.602-2.795,0.535c-0.459,1.258,0.27,2.58,1.344,3.434c2.709,2.158,5.482,1.994,8.244,0.043
		c0.51-0.361,1.035-0.922,1.654-0.172c0.551,0.666,0.15,1.115-0.334,1.635c-1.848,1.98-6.48,2.506-9.488,1.027
		c-2.865-1.41-4.67-5.807-3.582-9.521c0.949-3.246,3.15-5.395,6.717-5.596c3.66-0.209,6.176,1.336,7.488,4.926
		c0.996,2.725,0.457,3.965-2.607,3.686C611.958,314.792,610.778,314.88,609.606,314.88z"/>
	<path fill-rule="evenodd" clip-rule="evenodd" fill="#B6B4AA" d="M773.499,308.673c1.66-2.652,4.254-2.658,6.785-2.309
		c2.359,0.324,3.889,1.711,4.471,4.236c0.748,3.236,0.234,6.477,0.393,9.709c0.021,0.438-0.332,0.895-0.512,1.344
		c-3.232-1.605-6.311,2.277-9.635,0.205c-1.572-0.98-2.76-2.178-2.736-3.953c0.025-1.855,0.807-3.566,2.82-4.254
		c1.719-0.588,3.438-1.145,5.301-1.158c0.93-0.008,2.256,0.414,2.426-1.191c0.143-1.348-0.52-2.227-1.783-2.666
		c-1.359-0.473-2.648-0.783-4.158-0.254C775.921,308.712,774.886,309.862,773.499,308.673z"/>
	<path fill-rule="evenodd" clip-rule="evenodd" fill="#B6B4AB" d="M746.491,306.249c4.633-0.012,8.094,3.408,8.16,8.061
		c0.061,4.375-3.795,8.254-8.186,8.236c-4.432-0.018-8.098-3.723-8.16-8.244C738.243,309.806,741.847,306.259,746.491,306.249z"/>
	<path fill-rule="evenodd" clip-rule="evenodd" fill="#B5B5AA" d="M846.331,309.335c2.9-3.166,5.57-3.528,8.391-2.76
		c2.734,0.744,3.859,2.895,3.977,5.609c0.049,1.17,0.074,2.348-0.012,3.512c-0.143,1.92,0.482,3.869-0.234,5.762
		c-2.996-1.52-5.506,1.859-8.564,0.773c-2.176-0.773-3.672-1.688-3.75-4.256c-0.078-2.471,0.951-3.994,3.287-4.588
		c1.5-0.381,3.043-0.6,4.572-0.863c0.947-0.162,2.252,0.32,2.395-1.266c0.121-1.34-0.629-2.037-1.795-2.676
		C852.085,307.208,849.878,308.985,846.331,309.335z"/>
	<path fill-rule="evenodd" clip-rule="evenodd" fill="#B5B4AA" d="M677.958,314.517c-0.039-4.877,2.867-8.133,7.369-8.252
		c5.031-0.133,8.295,2.848,8.387,7.66c0.098,5.053-3.182,8.557-8.049,8.604C681.169,322.571,677.999,319.274,677.958,314.517z"/>
	<path fill-rule="evenodd" clip-rule="evenodd" fill="#B5B4AA" d="M480.018,314.216c0.023-4.74,3.125-7.955,7.676-7.955
		c5.002-0.002,8.089,3.033,8.089,7.951c0,4.855-3.323,8.309-7.933,8.242C482.928,322.384,479.99,319.296,480.018,314.216z"/>
	<path fill-rule="evenodd" clip-rule="evenodd" fill="#B5B4AA" d="M347.803,314.241c0.042-4.754,3.105-7.951,7.656-7.988
		c4.938-0.043,8.098,3.053,8.1,7.932c0.002,4.852-3.333,8.34-7.91,8.273C350.71,322.386,347.757,319.294,347.803,314.241z"/>
	<path fill-rule="evenodd" clip-rule="evenodd" fill="#B5B4A9" d="M558.032,329.134c5.123-2.658,6.227-5.619,4.318-10.539
		c-1.439-3.715-2.916-7.416-4.43-11.258c2.436,0.451,2.391,0.471,4.137,4.645c0.891,2.131,1.371,4.463,3.105,6.684
		c1.332-3.48,2.545-6.711,3.813-9.918c0.318-0.805,0.611-1.99,1.811-1.582c1.469,0.502,0.395,1.561,0.133,2.24
		c-2.227,5.807-4.492,11.6-6.832,17.363C563.085,329.241,561.341,330.419,558.032,329.134z"/>
	<path fill-rule="evenodd" clip-rule="evenodd" fill="#B6B5AB" d="M435.542,314.745c0,1.174,0.176,2.383-0.047,3.512
		c-0.242,1.244,1.402,4.793-2.514,2.418c-0.266-0.162-1.049,0.611-1.629,0.871c-4.916,2.197-8.617,0.127-9.076-5.213
		c-0.211-2.459-0.055-4.951-0.033-7.428c0.006-0.773,0.018-1.719,1.068-1.742c1.028-0.023,1.154,0.881,1.168,1.678
		c0.035,2.217,0.027,4.434,0.047,6.65c0.021,2.514,0.33,4.764,3.656,4.85c3.346,0.086,4.686-1.924,4.984-4.809
		c0.229-2.195,0.076-4.428,0.113-6.643c0.014-0.813,0.162-1.707,1.148-1.725c1.057-0.02,1.078,0.939,1.088,1.715
		c0.025,1.955,0.01,3.91,0.01,5.865C435.532,314.745,435.536,314.745,435.542,314.745z"/>
	<path fill-rule="evenodd" clip-rule="evenodd" fill="#B5B4AA" d="M702.753,322.571c-1.223-0.275-2.418-0.385-3.479-0.824
		c-1.135-0.471-2.861-1.137-2.049-2.67c0.971-1.828,1.896,0.242,2.752,0.611c1.383,0.6,2.744,0.887,4.141,0.436
		c1-0.322,1.84-1.063,1.967-2.201c0.137-1.227-0.646-1.904-1.73-2.244c-1.475-0.463-2.977-0.844-4.441-1.336
		c-1.945-0.654-3.125-2.096-2.844-4.104c0.346-2.482,2.127-3.754,4.6-3.963c2.186-0.184,4.123,0.363,5.525,2.184
		c0.408,0.531,0.078,1.004-0.355,1.293c-0.652,0.438-1.18,0.07-1.715-0.367c-1.246-1.021-2.547-1.781-4.238-0.867
		c-0.85,0.459-1.582,0.947-1.598,1.99c-0.016,1.055,0.633,1.656,1.584,1.947c0.988,0.303,1.973,0.662,2.984,0.828
		c2.895,0.477,4.33,1.943,4.039,5.043C707.583,321.636,705.026,321.913,702.753,322.571z"/>
	<path fill-rule="evenodd" clip-rule="evenodd" fill="#B6B5AA" d="M541.39,322.548c-1.643-0.518-3.51-0.67-4.945-1.947
		c-0.543-0.482-0.834-1.049-0.357-1.682c0.469-0.621,1.057-0.611,1.65-0.076c1.217,1.096,2.629,1.613,4.289,1.484
		c1.473-0.115,2.545-0.869,2.863-2.229c0.391-1.67-0.875-2.25-2.232-2.598c-0.877-0.225-1.744-0.482-2.625-0.676
		c-2.627-0.576-4.373-2.162-3.988-4.867c0.385-2.713,2.602-3.65,5.209-3.709c1.508-0.033,2.83,0.424,3.977,1.342
		c0.545,0.438,1.494,0.91,0.787,1.83c-0.566,0.74-1.279,0.648-1.998-0.008c-0.566-0.516-1.227-1.125-1.926-1.256
		c-1.666-0.311-3.268,0.23-3.842,1.891c-0.563,1.623,0.74,2.27,2.129,2.607c0.756,0.184,1.484,0.49,2.246,0.621
		c2.742,0.473,4.83,1.789,4.486,4.818C546.761,321.198,544.216,322.138,541.39,322.548z"/>
	<path fill-rule="evenodd" clip-rule="evenodd" fill="#B5B4AA" d="M763.194,322.476c-1.48-0.559-3.334-0.332-4.57-1.738
		c-0.467-0.529-1.479-0.969-0.781-1.846c0.514-0.646,1.314-0.77,2.012-0.012c0.813,0.883,1.729,1.518,3.043,1.469
		c1.607-0.064,3.266-0.008,3.596-2.1c0.289-1.828-1.039-2.51-2.451-2.994c-1.342-0.461-2.783-0.686-4.055-1.283
		c-1.705-0.801-2.527-2.309-2.041-4.186c0.65-2.521,2.639-3.361,5.012-3.516c1.916-0.123,3.611,0.398,4.822,1.967
		c0.166,0.215,0.064,0.781-0.104,1.074c-0.27,0.469-0.725,0.688-1.287,0.33c-0.762-0.482-1.484-1.143-2.32-1.365
		c-1.688-0.449-3.207,0.131-3.75,1.84c-0.525,1.65,0.881,2.246,2.148,2.684c0.729,0.25,1.508,0.354,2.256,0.553
		c2.639,0.709,4.531,2.008,4.043,5.176C768.276,321.722,765.706,321.993,763.194,322.476z"/>
	<path fill-rule="evenodd" clip-rule="evenodd" fill="#B6B4AB" d="M500.413,321.563c0-4.43-0.018-8.859,0.016-13.289
		c0.006-0.736,0.676-1.418,1.207-0.832c0.939,1.039,1.426,0.324,2.236-0.055c5.623-2.634,9.008-0.789,9.732,5.389
		c0.256,2.18,0.119,4.412,0.068,6.617c-0.021,0.938,0.357,2.379-1.256,2.299c-1.283-0.061-0.975-1.322-0.994-2.162
		c-0.051-2.338,0.045-4.678-0.053-7.012c-0.096-2.309-1.189-4.236-3.6-4.34c-2.252-0.096-4.156,0.891-5.016,3.457
		c-1.092,3.256-0.047,6.699-1.012,9.928C501.3,321.563,500.856,321.563,500.413,321.563z"/>
	<path fill-rule="evenodd" clip-rule="evenodd" fill="#B6B5AA" d="M396.427,317.302c-0.019,2.928-1.544,4.207-3.979,4.779
		c-2.755,0.648-5.098,0.074-6.993-2.07c-0.387-0.438-0.521-0.91,0.129-1.256c0.459-0.246,0.957-0.5,1.402-0.012
		c1.248,1.373,2.822,1.719,4.596,1.576c1.318-0.107,2.253-0.658,2.465-2.025c0.206-1.328-0.344-2.271-1.662-2.695
		c-1.471-0.475-2.968-0.879-4.414-1.422c-1.973-0.742-2.869-2.26-2.45-4.309c0.488-2.393,2.368-3.285,4.551-3.57
		c2.032-0.266,3.88,0.246,5.252,1.873c0.182,0.217,0.151,0.795-0.011,1.074c-0.258,0.445-0.717,0.73-1.291,0.377
		c-0.657-0.406-1.293-0.857-1.984-1.193c-1.912-0.936-3.443-0.244-4.096,1.582c-0.666,1.865,0.992,2.432,2.363,2.877
		c0.851,0.277,1.805,0.24,2.65,0.525C394.926,314.079,396.375,315.259,396.427,317.302z"/>
	<path fill-rule="evenodd" clip-rule="evenodd" fill="#B5B4A9" d="M368.198,322.534c0-5.357-0.01-9.727,0.019-14.098
		c0.002-0.336,0.271-0.672,0.417-1.01c3.271,1.426,6.058-2.812,9.565-0.637c2.979,1.85,2.956,4.676,3.229,7.447
		c0.203,2.057,0.037,4.152-0.002,6.23c-0.014,0.709-0.371,1.281-1.148,1.277c-0.828-0.002-1.035-0.664-1.045-1.338
		c-0.033-2.469-0.076-4.938-0.032-7.404c0.044-2.475-0.647-4.527-3.403-4.791c-2.602-0.25-4.434,1.016-5.223,3.652
		c-0.566,1.896-0.645,3.814-0.696,5.77C369.843,318.948,370.45,320.444,368.198,322.534z"/>
	<path fill-rule="evenodd" clip-rule="evenodd" fill="#B3B2A8" d="M812.259,321.897c-3.699,0-7.398-0.012-11.098,0.006
		c-1.338,0.006-1.832-0.693-1.83-1.941c0.008-6.496-0.004-12.992,0.012-19.489c0.004-0.893-0.041-2.025,1.324-1.842
		c1.291,0.174,0.982,1.354,0.986,2.189c0.035,5.458,0.127,10.917-0.025,16.37c-0.066,2.42,0.771,3.242,3.135,3.09
		c2.5-0.162,5.02-0.037,7.529-0.037C812.28,320.794,812.271,321.347,812.259,321.897z"/>
	<path fill-rule="evenodd" clip-rule="evenodd" fill="#B6B5AC" d="M662.185,306.19c0.711,0.113,1.432,0.061,1.969,0.35
		c1.133,0.609,3.412,0.752,2.557,2.623c-0.787,1.719-1.93-0.262-2.826-0.617c-2.549-1.012-4.727-0.346-6.33,1.535
		c-1.928,2.262-2.162,4.992-0.551,7.59c1.463,2.357,3.695,3.18,6.398,2.49c0.613-0.156,1.172-0.549,1.734-0.869
		c0.607-0.348,1.289-0.592,1.678,0.127c0.369,0.688-0.252,1.168-0.74,1.604c-2.219,1.977-6.832,1.83-9.328-0.467
		c-2.715-2.502-3.648-5.514-2.363-9.16C655.716,307.603,658.634,306.45,662.185,306.19z"/>
	<path fill-rule="evenodd" clip-rule="evenodd" fill="#B6B5AB" d="M468.868,319.323c-1.75,3.35-5.148,4.068-9.014,1.906
		c-3.947-2.207-5.145-6.967-2.809-11.16c1.943-3.486,7.188-4.972,10.537-2.957c0.748,0.449,1.84,0.85,1.326,2.012
		c-0.453,1.027-1.209,0.576-1.906,0.09c-2.852-1.988-5.566-1.408-7.564,1.096c-1.834,2.295-2.021,5.229-0.262,7.654
		c2.039,2.809,4.9,3.152,7.947,1.428C467.692,319.071,468.264,318.728,468.868,319.323z"/>
	<path fill-rule="evenodd" clip-rule="evenodd" fill="#B5B4AA" d="M440.219,314.294c-0.166-3.234,1.1-5.578,3.721-6.986
		c2.676-1.437,5.473-1.603,8.156,0.154c0.635,0.416,1.555,0.807,1.02,1.758c-0.551,0.977-1.268,0.383-1.953-0.039
		c-3.055-1.885-5.738-1.352-7.85,1.488c-1.865,2.51-1.672,5.211,0.205,7.555c2.08,2.596,4.762,2.904,7.607,1.107
		c0.707-0.447,1.523-0.84,2.004,0.057c0.469,0.879-0.408,1.439-1.035,1.824c-2.529,1.549-5.232,1.52-7.789,0.246
		C441.352,319.987,439.967,317.442,440.219,314.294z"/>
	<path fill-rule="evenodd" clip-rule="evenodd" fill="#B6B5AC" d="M812.989,307.964c2.594-1.023,3.938-1.975,3.602-4.294
		c-0.102-0.688,0.379-1.248,1.184-1.164c0.561,0.059,1.035,0.471,0.939,1.035c-0.51,3.026,1.598,3.565,4.256,4.103
		c-7.131,1.643-3.379,6.926-4.074,10.604c-0.52,2.746,2.289,1.672,3.742,2.557c-0.672,1.598-1.768,1.807-3.307,1.389
		c-1.561-0.422-2.611-1.311-2.717-2.898c-0.148-2.201-0.039-4.418-0.102-6.627C816.454,310.573,817.413,307.829,812.989,307.964z"/>
	<path fill-rule="evenodd" clip-rule="evenodd" fill="#B6B4AA" d="M636.835,318.608c2.496-3.789,2.373-8.605,5.963-11.537
		c-0.73,4.887-2.918,9.244-4.705,13.723c-0.742,1.857-2.221,1.355-2.861-0.059c-1.82-4.027-3.4-8.162-5.068-12.256
		c-0.186-0.461-0.49-1.057,0.146-1.33c0.859-0.371,1.57,0.074,1.904,0.863c0.756,1.791,1.352,3.654,2.135,5.434
		C635.069,315.079,635.288,316.958,636.835,318.608z"/>
	<path fill-rule="evenodd" clip-rule="evenodd" fill="#B4B3A9" d="M408.27,320.661c-3.257,2.529-6.059,1.701-6.374-1.547
		c-0.226-2.314-0.19-4.672-0.077-7.002c0.105-2.152-0.174-3.861-3.211-4.115c2.943-0.904,3.34-3.108,3.854-5.644
		c0.622,3.176,2.167,5.173,5.889,5.421c-7.293,0.283-4.416,5.371-4.867,8.748C403.049,319.765,405.323,320.54,408.27,320.661z"/>
	<path fill-rule="evenodd" clip-rule="evenodd" fill="#B9B7AF" d="M621.653,307.085c2.059,2.313,3.121-1.31,4.898-0.826
		c0.686,0.188,1.697-0.248,1.838,0.871c0.094,0.736-0.527,1.225-1.182,1.307c-4.697,0.594-4.578,4.049-4.73,7.545
		c-0.084,1.92,0.924,5.529-0.902,5.428c-2.855-0.16-0.986-3.549-1.273-5.486c-0.34-2.289-0.078-4.666-0.068-7.004
		C620.237,307.952,620.356,307.058,621.653,307.085z"/>
	<path fill-rule="evenodd" clip-rule="evenodd" fill="#B8B7AD" d="M411.335,314.423c-0.001-1.426-0.166-2.875,0.049-4.266
		c0.187-1.201-1.442-4.644,2.468-2.254c1.125,0.686,2.049-1.813,3.619-1.619c0.616,0.076,1.5,0.07,1.757,0.447
		c0.347,0.508-0.057,1.457-0.704,1.551c-5.939,0.852-4.721,5.375-4.925,9.262c-0.073,1.406,0.815,3.955-0.916,3.988
		c-2.515,0.049-0.997-2.582-1.306-4.01C411.165,316.532,411.336,315.458,411.335,314.423z"/>
	<path fill-rule="evenodd" clip-rule="evenodd" fill="#BAB9AE" d="M475.367,314.579c0,1.809,0.012,3.617-0.006,5.424
		c-0.008,0.793-0.104,1.662-1.1,1.738c-1.083,0.084-1.163-0.82-1.169-1.596c-0.023-3.746-0.025-7.492-0.008-11.236
		c0.004-0.76,0.006-1.727,1.042-1.738c1.299-0.018,1.213,1.102,1.23,1.984C475.392,310.962,475.367,312.771,475.367,314.579z"/>
	<path fill-rule="evenodd" clip-rule="evenodd" fill="#BAB9AF" d="M646.837,314.306c-0.002-1.809-0.014-3.619,0.004-5.428
		c0.01-0.795,0.125-1.684,1.113-1.73c1.047-0.051,1.146,0.861,1.15,1.643c0.023,3.748,0.025,7.498,0.012,11.246
		c-0.002,0.771-0.041,1.682-1.08,1.715c-1.031,0.033-1.18-0.826-1.191-1.629C646.821,318.185,646.839,316.245,646.837,314.306z"/>
	<path fill-rule="evenodd" clip-rule="evenodd" fill="#B3B2AA" d="M671.384,321.544c0-4.719,0-9.438,0-14.156
		c0.281,0,0.563,0,0.844,0c0,4.717,0,9.434,0,14.15C671.946,321.54,671.665,321.542,671.384,321.544z"/>
	<path fill-rule="evenodd" clip-rule="evenodd" fill="#BABAB2" d="M865.536,318.892c0.84,0.076,1.457,0.547,1.533,1.41
		c0.08,0.896-0.527,1.43-1.377,1.555c-0.971,0.141-1.438-0.424-1.457-1.338C864.216,319.671,864.511,318.997,865.536,318.892z"/>
	<path fill-rule="evenodd" clip-rule="evenodd" fill="#BDBBB2" d="M649.622,300.688c-0.033,0.809-0.521,1.309-1.162,1.363
		c-1.088,0.096-1.654-0.596-1.613-1.658c0.027-0.738,0.504-1.145,1.271-1.094C649.011,299.359,649.491,299.875,649.622,300.688z"/>
	<path fill-rule="evenodd" clip-rule="evenodd" fill="#BBBBB5" d="M672.224,299.275c0.748,0.125,1.123,0.566,1.066,1.324
		c-0.064,0.891-0.58,1.479-1.451,1.463c-0.881-0.016-1.451-0.627-1.301-1.523C670.681,299.691,671.341,299.27,672.224,299.275z"/>
	<path fill-rule="evenodd" clip-rule="evenodd" fill="#BBBBB5" d="M475.341,300.814c-0.096,0.676-0.561,1.289-1.453,1.252
		c-0.884-0.035-1.431-0.664-1.276-1.543c0.148-0.83,0.802-1.324,1.683-1.229C475.019,299.375,475.404,299.859,475.341,300.814z"/>
	<path fill-rule="evenodd" clip-rule="evenodd" fill="#FEFEFE" d="M851.804,251.556c-0.018,7.365-4.654,12.145-11.787,12.151
		c-7.092,0.006-11.732-4.821-11.736-12.212c-0.008-7.296,4.76-12.214,11.787-12.161
		C847.224,239.388,851.819,244.174,851.804,251.556z"/>
	<path fill-rule="evenodd" clip-rule="evenodd" fill="#FEFEFE" d="M430.833,251.69c-0.029,7.306-4.711,12.04-11.915,12.047
		c-7.024,0.007-11.58-4.868-11.549-12.356c0.031-7.275,4.481-11.913,11.487-11.973C426.303,239.344,430.862,244.02,430.833,251.69z"
		/>
	<path fill-rule="evenodd" clip-rule="evenodd" fill="#FEFDFD" d="M628.399,246.025c0.959-5.551,3.701-8.215,8.9-8.893
		c3.979-0.519,7.896,1.583,9.547,5.128c1.057,2.268,1.354,3.917-2.156,3.809C639.28,245.903,633.862,246.025,628.399,246.025z"/>
	<path fill-rule="evenodd" clip-rule="evenodd" fill="#FDFDFD" d="M833.351,320.341c-3.295-0.055-5.852-2.66-5.842-5.959
		c0.008-3.332,3.004-6.469,6.092-6.379c3.365,0.098,6.541,3.404,6.379,6.643C839.812,317.979,836.993,320.401,833.351,320.341z"/>
	<path fill-rule="evenodd" clip-rule="evenodd" fill="#FAF9F7" d="M525.367,313.569c-1.742-1.143-4.699,1.162-4.865-1.691
		c-0.127-2.225,2.297-3.848,4.656-3.801c2.152,0.043,4.954,0.719,4.872,3.404C529.923,315.058,526.605,312.046,525.367,313.569z"/>
	<path fill-rule="evenodd" clip-rule="evenodd" fill="#F9F9F6" d="M608.528,313.411c-1.508-0.879-4.346,1.121-4.533-1.459
		c-0.193-2.686,2.533-3.885,4.91-3.867c2.217,0.016,4.941,1.275,4.699,3.678C613.292,314.862,610.169,312.397,608.528,313.411z"/>
	<path fill-rule="evenodd" clip-rule="evenodd" fill="#FEFDFC" d="M780.169,314.204c2.33-0.232,2.908,0.582,2.709,2.029
		c-0.41,2.973-2.213,4.236-5.131,4.098c-1.93-0.094-3.707-0.977-3.236-2.957C775.276,314.165,778.481,314.646,780.169,314.204z"/>
	<path fill-rule="evenodd" clip-rule="evenodd" fill="#FDFDFC" d="M746.329,320.337c-3.711-0.066-5.836-2.416-5.699-6.309
		c0.121-3.523,2.516-6.008,5.824-6.045c3.57-0.041,6.072,2.805,5.92,6.73C752.243,318.101,749.772,320.397,746.329,320.337z"/>
	<path fill-rule="evenodd" clip-rule="evenodd" fill="#FDFCFB" d="M854.569,314.128c1.799-0.174,2.082,0.992,1.861,2.445
		c-0.465,3.037-2.523,3.895-5.287,3.773c-1.785-0.078-3.002-0.953-3.174-2.705C847.784,315.771,851.421,313.882,854.569,314.128z"/>
	<path fill-rule="evenodd" clip-rule="evenodd" fill="#FDFDFD" d="M679.653,313.878c0.313-3.186,3.717-6.188,6.67-5.881
		c3.018,0.313,5.732,3.504,5.537,6.508c-0.25,3.836-3.01,6.199-6.801,5.826C681.829,320.013,679.343,317.044,679.653,313.878z"/>
	<path fill-rule="evenodd" clip-rule="evenodd" fill="#FEFDFD" d="M493.933,314.321c-0.131,3.701-2.614,6.109-6.21,6.016
		c-3.531-0.092-6.197-2.877-5.99-6.258c0.195-3.172,3.5-6.295,6.463-6.105C491.17,308.163,494.038,311.337,493.933,314.321z"/>
	<path fill-rule="evenodd" clip-rule="evenodd" fill="#FDFDFC" d="M355.282,320.341c-3.196-0.066-5.836-2.826-5.791-6.053
		c0.045-3.244,3.207-6.422,6.233-6.266c3.137,0.164,5.976,3.041,6.012,6.092C361.78,317.825,359.087,320.423,355.282,320.341z"/>
</g>
</svg>
