<?xml version="1.0" encoding="utf-8"?>
<!-- Generator: Adobe Illustrator 21.1.0, SVG Export Plug-In . SVG Version: 6.00 Build 0)  -->
<svg version="1.1" id="Capa_1" xmlns="http://www.w3.org/2000/svg" xmlns:xlink="http://www.w3.org/1999/xlink" x="0px" y="0px"
	 viewBox="0 0 1366 768" style="enable-background:new 0 0 1366 768;" xml:space="preserve">
<style type="text/css">
	.st0{fill:#FFFFFF;}
	.st1{fill:none;stroke:#FF0000;stroke-miterlimit:10;}
	.st2{fill:#474747;stroke:#FF0000;stroke-miterlimit:10;}
	.st3{fill:none;stroke:#474747;stroke-miterlimit:10;}
	.st4{fill:none;stroke:#474747;stroke-width:0.75;stroke-miterlimit:10;}
</style>
<g>
	<g>
		<path class="st0" d="M61,299.5c1.9,0,1.9-3,0-3C59.1,296.5,59.1,299.5,61,299.5L61,299.5z"/>
	</g>
</g>
<g>
	<g>
		<path class="st0" d="M240,153.5c1.9,0,1.9-3,0-3C238.1,150.5,238.1,153.5,240,153.5L240,153.5z"/>
	</g>
</g>
<g>
	<g>
		<path class="st0" d="M79,297.5c1.9,0,1.9-3,0-3C77.1,294.5,77.1,297.5,79,297.5L79,297.5z"/>
	</g>
</g>
<g>
	<g>
		<path class="st0" d="M129,166.5c1.9,0,1.9-3,0-3C127.1,163.5,127.1,166.5,129,166.5L129,166.5z"/>
	</g>
</g>
<g>
	<g>
		<path class="st0" d="M135,181c-1,63.6-9.7,126.9-26.1,188.4c-0.5,1.9,2.4,2.7,2.9,0.8C128.3,308.5,137,244.9,138,181
			C138.1,179.1,135.1,179.1,135,181L135,181z"/>
	</g>
</g>
<line class="st1" x1="38.5" y1="451.5" x2="161" y2="286"/>
<line class="st2" x1="538.5" y1="623.5" x2="755.5" y2="328.5"/>
<line class="st1" x1="260" y1="152" x2="311" y2="84"/>
<line class="st1" x1="911.5" y1="170.5" x2="948" y2="121"/>
<line class="st3" x1="140.5" y1="750.5" x2="340.5" y2="482.5"/>
<line class="st4" x1="549" y1="203" x2="582.5" y2="158.5"/>
<line class="st3" x1="829.5" y1="772.5" x2="1050.5" y2="476.5"/>
<line class="st3" x1="1177.5" y1="306.5" x2="1253.5" y2="204.5"/>
</svg>
