<?xml version="1.0" encoding="utf-8"?>
<!-- Generator: Adobe Illustrator 16.0.0, SVG Export Plug-In . SVG Version: 6.00 Build 0)  -->
<!DOCTYPE svg PUBLIC "-//W3C//DTD SVG 1.1//EN" "http://www.w3.org/Graphics/SVG/1.1/DTD/svg11.dtd">
<svg version="1.1" id="Layer_1" xmlns="http://www.w3.org/2000/svg" xmlns:xlink="http://www.w3.org/1999/xlink" x="0px" y="0px"
	 width="55px" height="540.5px" viewBox="0 0 55 540.5" enable-background="new 0 0 55 540.5" xml:space="preserve">
<path fill="#FFFFFF" d="M18.248,462.522c-3.088,0-5.601,2.512-5.601,5.6c0,1.289,0.442,2.475,1.178,3.422l-2.532,2.532
	c-0.391,0.391-0.391,1.021,0,1.414c0.195,0.191,0.451,0.293,0.707,0.293s0.512-0.102,0.707-0.293l2.607-2.607
	c0.854,0.528,1.857,0.839,2.934,0.839c3.088,0,5.6-2.512,5.6-5.6S21.336,462.522,18.248,462.522z M18.248,471.721
	c-1.985,0-3.601-1.611-3.601-3.6s1.615-3.6,3.601-3.6c1.984,0,3.6,1.611,3.6,3.6S20.232,471.721,18.248,471.721z"/>
<g id="_x31_OI23F.tif_14_">
	<g>
		<path fill="#FFFFFF" d="M23.934,349.886c-0.039,0.101-0.07,0.203-0.121,0.296c-0.166,0.307-0.439,0.445-0.779,0.451
			c-0.418,0.008-0.834,0.01-1.252-0.003c-0.16-0.004-0.229,0.048-0.283,0.199c-0.676,1.882-1.357,3.762-2.039,5.644
			c-0.168,0.457-0.447,0.655-0.928,0.655c-2.232,0-4.464,0-6.696-0.002c-0.113,0-0.227-0.015-0.34-0.024
			c-0.352-0.039-0.568-0.238-0.688-0.563c-0.426-1.185-0.855-2.361-1.285-3.541c-0.152-0.422-0.307-0.845-0.457-1.267
			c-0.229-0.646,0.164-1.191,0.848-1.191c3.231,0.001,6.463,0.001,9.694,0.005c0.143,0.002,0.197-0.049,0.238-0.174
			c0.068-0.22,0.166-0.427,0.227-0.646c0.113-0.403,0.334-0.701,0.75-0.824c0.797,0,1.594,0,2.391,0
			c0.367,0.113,0.607,0.354,0.721,0.724C23.934,349.709,23.934,349.798,23.934,349.886z M11.117,352.275
			c0.003,0.035,0.001,0.055,0.007,0.07c0.357,0.979,0.719,1.952,1.071,2.934c0.041,0.117,0.115,0.111,0.205,0.111
			c1.814,0,3.63-0.002,5.443,0.004c0.129,0,0.186-0.039,0.229-0.16c0.34-0.944,0.688-1.885,1.031-2.827
			c0.014-0.039,0.016-0.082,0.025-0.132C16.455,352.275,13.795,352.275,11.117,352.275z"/>
		<path fill="#FFFFFF" d="M10.012,358.943c0.001-0.68,0.564-1.238,1.247-1.238c0.682,0,1.249,0.563,1.249,1.236
			c0,0.688-0.563,1.262-1.247,1.26C10.569,360.2,10.012,359.639,10.012,358.943z"/>
		<path fill="#FFFFFF" d="M17.754,358.941c0-0.678,0.564-1.235,1.248-1.236c0.68,0,1.248,0.563,1.246,1.236
			c0,0.689-0.559,1.259-1.246,1.26S17.752,359.636,17.754,358.941z"/>
	</g>
</g>
<g>
	<g id="tcVsoo.tif_6_">
		<g>
			<path fill="#FFFFFF" d="M8.021,387.855c-0.008-0.164-0.023-0.328-0.021-0.49c0.005-0.354,0.089-0.688,0.271-0.991
				c0.206-0.349,0.503-0.576,0.895-0.681c1.142-0.301,2.281-0.614,3.428-0.896c0.75-0.188,1.289-0.624,1.689-1.262
				c0.284-0.452,0.46-0.948,0.604-1.461c0.099-0.35,0.207-0.699,0.358-1.026c0.249-0.53,0.652-0.911,1.239-1.06
				c0.495-0.123,0.958-0.022,1.392,0.225c0.518,0.295,0.914,0.723,1.26,1.197c0.525,0.727,0.902,1.523,1.205,2.363
				c0.295,0.816,0.5,1.66,0.605,2.521c0.133,1.063,0.15,2.126-0.182,3.164c-0.121,0.379-0.301,0.729-0.576,1.021
				c-0.617,0.649-1.525,0.744-2.33,0.246c-0.344-0.213-0.631-0.492-0.91-0.78c-0.487-0.507-1.031-0.931-1.698-1.171
				c-0.354-0.129-0.718-0.174-1.097-0.158c-0.256,0.01-0.383,0.247-0.353,0.441c0.007,0.041,0.018,0.084,0.028,0.123
				c0.225,0.854,0.451,1.711,0.672,2.565c0.032,0.122,0.084,0.228,0.194,0.284c0.424,0.229,0.515,0.64,0.554,1.063
				c0.028,0.307-0.125,0.545-0.379,0.715c-0.03,0.021-0.061,0.043-0.091,0.063c-0.605,0.159-1.212,0.315-1.817,0.479
				c-0.008-0.004-0.016-0.013-0.022-0.014c-0.501-0.021-0.745-0.219-0.872-0.701c-0.299-1.137-0.596-2.271-0.896-3.402
				c-0.125-0.479-0.539-0.721-1.021-0.608c-0.252,0.06-0.504,0.056-0.751-0.024c-0.494-0.162-0.835-0.5-1.082-0.94
				c-0.066-0.117-0.12-0.242-0.18-0.362C8.099,388.15,8.061,388.005,8.021,387.855z M16.641,387.923
				c0.278,0.646,0.821,1.496,1.366,1.92c0.168,0.132,0.357,0.247,0.555,0.326c0.4,0.163,0.793,0.065,1.061-0.272
				c0.152-0.188,0.275-0.418,0.361-0.646c0.23-0.614,0.264-1.267,0.244-1.912c-0.033-1.021-0.227-2.019-0.541-2.983
				c-0.271-0.836-0.623-1.639-1.127-2.359c-0.281-0.405-0.6-0.777-1.025-1.04c-0.611-0.377-1.196-0.224-1.544,0.405
				c-0.048,0.084-0.09,0.172-0.126,0.263c-0.199,0.498-0.266,1.021-0.28,1.552c-0.007,0.271,0.003,0.547,0.006,0.838
				c0.328-0.088,0.632-0.162,0.933-0.248c0.537-0.148,1.012-0.021,1.432,0.33c0.693,0.582,0.998,1.674,0.711,2.53
				c-0.188,0.558-0.547,0.933-1.135,1.071C17.235,387.76,16.942,387.843,16.641,387.923z M12.083,385.761
				c-0.051,0.015-0.091,0.023-0.131,0.034c-0.847,0.225-1.692,0.45-2.54,0.666c-0.253,0.064-0.414,0.216-0.514,0.446
				c-0.239,0.562-0.016,1.413,0.471,1.784c0.183,0.14,0.383,0.211,0.617,0.146c0.874-0.229,1.749-0.461,2.625-0.688
				c0.029-0.008,0.058-0.021,0.084-0.032C11.985,387.464,11.781,386.689,12.083,385.761z M15.848,388.148
				c-0.576-1.27-0.917-2.566-1.04-3.95c-0.045,0.055-0.074,0.09-0.102,0.125c-0.462,0.586-1.031,1.021-1.765,1.209
				c-0.254,0.063-0.411,0.221-0.508,0.45c-0.235,0.562-0.013,1.404,0.468,1.772c0.187,0.146,0.392,0.218,0.629,0.151
				c0.744-0.198,1.465-0.114,2.169,0.181C15.741,388.107,15.782,388.123,15.848,388.148z M11.523,389.277
				c0.366,0.348,0.44,0.81,0.559,1.252c0.251,0.953,0.501,1.906,0.752,2.859c0.013,0.047,0.024,0.094,0.038,0.146
				c0.533-0.14,1.05-0.276,1.571-0.413c-0.034-0.186-0.065-0.35-0.247-0.461c-0.249-0.154-0.397-0.393-0.469-0.684
				c-0.097-0.397-0.213-0.791-0.309-1.189c-0.152-0.627-0.373-1.238-0.452-1.891C12.496,389.021,12.021,389.146,11.523,389.277z
				 M15.69,384.813c0.12,0.815,0.325,1.6,0.622,2.362c0.35-0.092,0.687-0.188,1.026-0.267c0.293-0.067,0.461-0.251,0.557-0.52
				c0.191-0.553-0.014-1.308-0.453-1.687c-0.209-0.183-0.439-0.254-0.716-0.17c-0.255,0.075-0.515,0.139-0.771,0.202
				C15.87,384.766,15.785,384.786,15.69,384.813z"/>
		</g>
	</g>
	<g>
		<path fill="#FFFFFF" d="M22.399,386.491c-0.066,0.002-0.133-0.015-0.195-0.05c-0.18-0.104-0.244-0.33-0.143-0.51
			c0.236-0.425,0.299-0.91,0.174-1.377c-0.129-0.479-0.434-0.875-0.857-1.119c-0.18-0.104-0.242-0.334-0.139-0.517
			c0.105-0.18,0.334-0.237,0.514-0.137c0.598,0.346,1.025,0.901,1.207,1.571c0.176,0.658,0.09,1.349-0.244,1.938
			C22.647,386.419,22.526,386.486,22.399,386.491z"/>
	</g>
	<g>
		<path fill="#FFFFFF" d="M23.884,386.906c-0.066,0.002-0.135-0.014-0.195-0.049c-0.182-0.104-0.244-0.33-0.143-0.51
			c0.424-0.759,0.533-1.634,0.309-2.467c-0.229-0.854-0.773-1.563-1.535-2.005c-0.178-0.104-0.24-0.332-0.137-0.513
			c0.103-0.182,0.334-0.239,0.514-0.139c0.934,0.539,1.602,1.412,1.885,2.457c0.273,1.024,0.139,2.103-0.383,3.026
			C24.132,386.835,24.011,386.902,23.884,386.906z"/>
	</g>
</g>
<circle fill="#37617C" cx="20.706" cy="141.848" r="19.706"/>
<g id="_x35_ZVoO2.tif_5_">
	<g>
		<path fill="#FFFFFF" d="M33.664,148.757c-0.205,0.584-0.637,0.793-1.229,0.748c-0.195-0.016-0.396-0.004-0.605-0.004
			c-0.184-1.014-0.689-1.813-1.564-2.358c-0.621-0.387-1.305-0.526-2.027-0.462c-1.098,0.1-2.551,0.867-2.938,2.786
			c-0.379,0.027-0.744-0.231-0.854-0.621c-0.035-0.126-0.047-0.264-0.049-0.396c-0.002-3.006-0.002-6.014-0.002-9.021
			c0-0.53,0.24-0.891,0.68-1.006c0.127-0.032,0.264-0.034,0.395-0.034c1.256-0.003,2.514,0.021,3.771-0.012
			c0.607-0.016,1.063,0.198,1.419,0.668c0.577,0.762,1.149,1.529,1.737,2.287c0.569,0.733,1.104,1.484,1.271,2.43
			C33.664,145.427,33.664,147.092,33.664,148.757z M27.174,143.937c1.654,0,3.289,0,4.979,0c-0.086-0.193-0.133-0.371-0.229-0.512
			c-0.688-0.988-1.396-1.97-2.098-2.949c-0.123-0.172-0.303-0.264-0.527-0.255c-0.326,0.013-0.652,0.003-0.982,0.003
			c-0.375,0-0.75,0-1.138,0C27.174,141.472,27.174,142.692,27.174,143.937z"/>
		<path fill="#FFFFFF" d="M21.572,136.523c0.256,0,0.545-0.002,0.836,0c0.672,0.006,1.039,0.365,1.039,1.029
			c0.002,3.643,0.002,7.283,0,10.926c0,0.654-0.367,1.02-1.02,1.023c-0.574,0.004-1.145,0-1.732,0
			c-0.166-0.922-0.598-1.671-1.352-2.218c-0.555-0.402-1.18-0.606-1.867-0.614c-0.535-0.008-1.043,0.104-1.52,0.346
			c-0.486,0.246-0.883,0.592-1.201,1.035c-0.311,0.434-0.496,0.92-0.588,1.446c-0.646,0-1.273,0.019-1.9-0.007
			c-0.471-0.021-0.793-0.361-0.844-0.83c-0.012-0.116-0.016-0.234-0.018-0.352c0-2.26-0.002-4.52,0.006-6.781
			c0.002-0.225-0.08-0.377-0.223-0.537c-1.189-1.311-1.709-2.865-1.527-4.613c0.271-2.583,2.055-4.568,4.574-5.186
			c2.84-0.697,5.906,0.935,6.893,3.686C21.314,135.396,21.42,135.945,21.572,136.523z M15.574,141.648
			c2.563,0.001,4.662-2.088,4.67-4.652c0.01-2.564-2.098-4.679-4.666-4.68c-2.559-0.001-4.662,2.094-4.67,4.654
			C10.9,139.539,13.002,141.646,15.574,141.648z"/>
		<path fill="#FFFFFF" d="M17.443,152.101c-1.178,0.007-2.146-0.955-2.145-2.132c0.002-1.164,0.947-2.116,2.121-2.136
			c1.152-0.021,2.148,0.972,2.148,2.137C19.568,151.134,18.611,152.093,17.443,152.101z"/>
		<path fill="#FFFFFF" d="M28.564,152.101c-1.166-0.004-2.129-0.913-2.135-2.141c-0.006-1.168,0.971-2.125,2.131-2.129
			c1.168-0.004,2.141,0.975,2.135,2.148C30.689,151.15,29.734,152.1,28.564,152.101z"/>
		<path fill="#FFFFFF" d="M14.652,136.958c0.104-0.195,0.178-0.415,0.318-0.578c0.113-0.13,0.168-0.249,0.176-0.411
			c0.031-0.744,0.07-1.488,0.104-2.232c0.012-0.281,0.125-0.427,0.33-0.424c0.201,0.004,0.309,0.154,0.322,0.435
			c0.029,0.775,0.061,1.552,0.098,2.327c0.006,0.08,0.072,0.157,0.115,0.235c0.104,0.187,0.209,0.372,0.313,0.56
			c0.049,0.093,0.076,0.206,0.143,0.285c0.381,0.457,0.775,0.906,1.16,1.359c0.191,0.225,0.189,0.401-0.004,0.598
			c-0.197,0.201-0.385,0.204-0.615,0.005c-0.408-0.354-0.807-0.72-1.225-1.063c-0.125-0.102-0.289-0.178-0.447-0.211
			C15.014,137.753,14.709,137.412,14.652,136.958z"/>
	</g>
</g>
<g>
	<circle fill="#E50E46" cx="41.531" cy="182.475" r="12.469"/>
	<g id="_x31_OI23F.tif_23_">
		<g>
			<path fill="#FFFFFF" d="M50.078,178.602c-0.041,0.103-0.072,0.207-0.123,0.3c-0.168,0.308-0.443,0.449-0.785,0.456
				c-0.424,0.006-0.844,0.009-1.264-0.005c-0.162-0.004-0.232,0.049-0.287,0.201c-0.682,1.9-1.369,3.798-2.059,5.695
				c-0.168,0.463-0.451,0.664-0.938,0.664c-2.254,0-4.506,0-6.761-0.003c-0.112,0-0.229-0.015-0.344-0.025
				c-0.354-0.038-0.572-0.24-0.69-0.572c-0.433-1.192-0.864-2.384-1.298-3.575c-0.153-0.423-0.313-0.849-0.465-1.273
				c-0.229-0.652,0.166-1.206,0.854-1.206c3.263,0.003,6.522,0.003,9.785,0.007c0.146,0.003,0.198-0.051,0.239-0.178
				c0.068-0.219,0.166-0.427,0.229-0.646c0.112-0.41,0.339-0.709,0.759-0.833c0.805,0,1.604,0,2.41,0
				c0.369,0.113,0.611,0.359,0.729,0.728C50.078,178.424,50.078,178.517,50.078,178.602z M37.141,181.016
				c0.004,0.033,0.002,0.056,0.01,0.071c0.358,0.987,0.727,1.972,1.08,2.96c0.041,0.119,0.117,0.112,0.207,0.112
				c1.832,0,3.664-0.002,5.492,0.005c0.133,0,0.188-0.041,0.232-0.164c0.344-0.953,0.693-1.902,1.041-2.854
				c0.014-0.038,0.016-0.082,0.025-0.131C42.529,181.016,39.844,181.016,37.141,181.016z"/>
			<path fill="#FFFFFF" d="M36.025,187.747c0.002-0.687,0.57-1.251,1.26-1.251c0.688,0,1.26,0.567,1.26,1.247
				c0,0.699-0.568,1.272-1.258,1.271C36.59,189.013,36.025,188.446,36.025,187.747z"/>
			<path fill="#FFFFFF" d="M43.84,187.744c0-0.684,0.57-1.248,1.26-1.248c0.688,0,1.26,0.567,1.26,1.248
				c0,0.698-0.563,1.27-1.26,1.27C44.406,189.015,43.838,188.445,43.84,187.744z"/>
		</g>
	</g>
</g>
<g>
	<g>
		<g>
			<path fill="#37617C" d="M45,95v9H30v-9H45 M46,94H29v11h17V94L46,94z"/>
		</g>
		<polyline fill="#37617C" points="30.066,94.946 37.314,101.582 44.736,94.946 		"/>
	</g>
</g>
<path fill="#37617C" d="M45.339,43.096c0.054,4.889-3.95,8.964-8.853,9.01c-4.961,0.045-9-3.91-9.091-8.902
	c-0.088-4.878,3.947-8.981,8.932-9.08C41.212,34.027,45.282,38.081,45.339,43.096z"/>
<path fill="#37617C" d="M45.775,71.864c0.013,4.928-4.047,8.96-9.01,8.953c-4.888-0.006-8.875-3.986-8.95-8.924
	c-0.07-4.895,4.02-9.056,8.917-9.076C41.749,62.797,45.766,66.815,45.775,71.864z"/>
<path fill="#FFFFFF" d="M36.398,40.31c0.826,0,1.649,0.002,2.479,0c0.979-0.002,1.449,0.526,1.475,1.467
	c0.021,0.861-0.021,1.725,0.008,2.586c0.035,1.051-0.568,1.557-1.498,1.593c-1.686,0.067-3.377,0.052-5.063,0.005
	c-0.807-0.021-1.365-0.469-1.396-1.342c-0.031-1.002-0.047-2.009-0.006-3.01c0.037-0.865,0.576-1.278,1.414-1.295
	C34.675,40.296,35.538,40.31,36.398,40.31z M37.645,43.102c-0.797-0.434-1.435-0.78-2.151-1.172c0,0.878,0,1.592,0,2.449
	C36.227,43.943,36.829,43.585,37.645,43.102z"/>
<path fill="#37617C" d="M35.398,22.994c-4.912-0.02-8.986-4.139-8.949-9.051c0.039-4.855,4.102-8.873,8.998-8.898
	c4.947-0.024,9.037,4.115,8.998,9.109C44.41,18.986,40.289,23.014,35.398,22.994z"/>
<g>
	<path fill="#FFFFFF" d="M34.441,18v-3.841h-0.646v-1.13h0.646v-1.12c0-0.669,0.156-1.147,0.461-1.437
		c0.309-0.289,0.813-0.433,1.521-0.433c0.076,0,0.168,0.007,0.271,0.022c0.104,0.015,0.238,0.043,0.404,0.083v1.151
		c-0.089-0.048-0.173-0.082-0.252-0.104c-0.082-0.022-0.169-0.033-0.257-0.033c-0.252,0-0.432,0.067-0.541,0.2
		c-0.108,0.134-0.164,0.365-0.164,0.692v0.978h0.925v1.13h-0.925V18H34.441z"/>
</g>
<g>
	<path fill="#FFFFFF" d="M35.563,72.879c-0.268-0.363-0.412-0.703-0.234-1.107c-0.277-0.027-0.535-0.028-0.781-0.084
		c-0.73-0.164-1.219-0.614-1.361-1.357c-0.146-0.74,0.051-1.394,0.637-1.895c0.428-0.365,0.951-0.559,1.498-0.58
		c0.977-0.037,1.955-0.01,3-0.01c-0.41,0.314-0.719,0.687-1.34,0.547c0.381,0.367,0.596,0.721,0.637,1.178
		c0.057,0.621-0.141,1.123-0.604,1.529c-0.166,0.147-0.346,0.281-0.488,0.446c-0.232,0.261-0.209,0.519,0.059,0.75
		c0.264,0.229,0.553,0.431,0.813,0.666c0.816,0.74,0.818,1.815,0.017,2.572c-0.544,0.512-1.218,0.729-1.937,0.797
		c-0.58,0.054-1.164,0.034-1.723-0.164c-0.779-0.274-1.209-0.821-1.164-1.525c0.031-0.541,0.338-0.924,0.775-1.212
		c0.582-0.382,1.248-0.479,1.92-0.55C35.354,72.874,35.425,72.879,35.563,72.879z M35.542,75.887
		c0.365-0.093,0.722-0.131,1.031-0.271c0.706-0.321,0.844-1.148,0.29-1.694c-0.233-0.231-0.516-0.419-0.778-0.618
		c-0.056-0.041-0.14-0.075-0.203-0.067c-0.487,0.065-0.987,0.099-1.461,0.23c-0.473,0.131-0.795,0.479-0.808,1.005
		c-0.016,0.545,0.287,0.918,0.765,1.109C34.747,75.729,35.15,75.789,35.542,75.887z M36.566,70.28
		c-0.017-0.095-0.026-0.243-0.053-0.387c-0.093-0.47-0.252-0.91-0.601-1.254c-0.565-0.563-1.521-0.354-1.685,0.386
		c-0.166,0.755,0.021,1.45,0.533,2.033c0.313,0.354,0.756,0.443,1.155,0.277C36.352,71.157,36.566,70.818,36.566,70.28z"/>
	<path fill="#FFFFFF" d="M39.352,72.132c-0.373,0-0.701,0-1.047,0c0-0.216,0-0.405,0-0.632c0.329,0,0.663,0,1.024,0
		c0-0.363,0-0.691,0-1.042c0.223,0,0.418,0,0.642,0c0,0.329,0,0.656,0,1.021c0.36,0,0.694,0,1.049,0c0,0.226,0,0.414,0,0.642
		c-0.332,0-0.666,0-1.024,0c0,0.363,0,0.69,0,1.042c-0.224,0-0.418,0-0.644,0C39.352,72.834,39.352,72.506,39.352,72.132z"/>
</g>
<path fill="#FFFFFF" d="M12.67,308.285c-6.445,0-11.67,5.225-11.67,11.67s5.225,11.67,11.67,11.67
	c6.446,0,11.671-5.225,11.671-11.67S19.116,308.285,12.67,308.285z M16.74,322.688l-1.414,1.414l-2.732-2.729l-2.732,2.729
	l-1.414-1.414l2.732-2.729l-2.732-2.729l1.414-1.414l2.732,2.729l2.732-2.729l1.414,1.414l-2.732,2.729L16.74,322.688z"/>
<polyline fill="none" stroke="#FFFFFF" stroke-miterlimit="10" points="45.52,410.203 41.32,414.203 37.121,410.203 "/>
<path fill="#0068D2" d="M39.961,438.38c-3.001,0-5.443,2.512-5.443,5.604c0,1.285,0.433,2.475,1.146,3.422l-2.461,2.528
	c-0.383,0.395-0.383,1.023,0,1.414c0.188,0.195,0.438,0.293,0.688,0.293s0.498-0.098,0.688-0.293l2.534-2.604
	c0.83,0.528,1.807,0.839,2.853,0.839c3.001,0,5.443-2.512,5.443-5.6C45.404,440.893,42.962,438.38,39.961,438.38z M39.961,447.58
	c-1.93,0-3.5-1.615-3.5-3.6c0-1.985,1.57-3.604,3.5-3.604c1.928,0,3.499,1.615,3.499,3.604
	C43.46,445.965,41.889,447.58,39.961,447.58z"/>
<g>
	<ellipse fill="#FFFFFF" cx="6.265" cy="487.854" rx="4.385" ry="4.887"/>
	<path fill="#37617C" d="M8.261,482.749c0.637,0.278,1.19,0.663,1.66,1.152c0.471,0.486,0.839,1.065,1.107,1.731
		c0.267,0.668,0.401,1.394,0.401,2.168c0,0.771-0.136,1.486-0.409,2.153s-0.644,1.248-1.114,1.743
		c-0.47,0.495-1.023,0.885-1.66,1.167c-0.637,0.283-1.313,0.425-2.031,0.425c-0.718,0-1.395-0.142-2.032-0.425
		c-0.637-0.282-1.19-0.672-1.66-1.167c-0.47-0.495-0.841-1.076-1.114-1.743S1,488.573,1,487.805c0-0.768,0.136-1.479,0.409-2.145
		c0.273-0.661,0.644-1.24,1.114-1.735c0.47-0.495,1.023-0.885,1.66-1.168c0.637-0.283,1.314-0.425,2.032-0.425
		C6.942,482.332,7.625,482.472,8.261,482.749z M7.746,491.739c0.475-0.217,0.892-0.521,1.25-0.902s0.642-0.834,0.849-1.349
		c0.207-0.52,0.311-1.071,0.311-1.668c0-0.606-0.101-1.167-0.303-1.687c-0.202-0.516-0.48-0.963-0.833-1.342
		c-0.354-0.379-0.771-0.677-1.251-0.895c-0.48-0.221-0.998-0.326-1.554-0.326c-0.545,0-1.056,0.105-1.531,0.326
		c-0.475,0.218-0.892,0.519-1.25,0.898c-0.359,0.384-0.642,0.833-0.849,1.353c-0.207,0.516-0.311,1.067-0.311,1.668
		c0,0.597,0.104,1.15,0.311,1.675c0.207,0.521,0.49,0.971,0.849,1.35c0.358,0.379,0.775,0.681,1.25,0.896
		c0.475,0.218,0.986,0.324,1.531,0.324C6.761,492.064,7.271,491.957,7.746,491.739z"/>
	<circle fill="#0068D2" cx="6.215" cy="487.805" r="2.427"/>
</g>
<g>
	<ellipse fill="#FFFFFF" cx="6.315" cy="501.271" rx="4.385" ry="4.887"/>
	<path fill="#37617C" d="M8.312,496.167c0.637,0.278,1.19,0.663,1.66,1.152c0.471,0.486,0.839,1.065,1.107,1.731
		c0.267,0.668,0.401,1.394,0.401,2.168c0,0.771-0.136,1.486-0.409,2.153c-0.273,0.667-0.644,1.248-1.114,1.743
		c-0.47,0.495-1.023,0.885-1.66,1.167c-0.637,0.283-1.313,0.425-2.031,0.425c-0.718,0-1.395-0.142-2.032-0.425
		c-0.637-0.282-1.19-0.672-1.66-1.167c-0.47-0.495-0.841-1.076-1.114-1.743s-0.409-1.385-0.409-2.153
		c0-0.768,0.136-1.479,0.409-2.145c0.273-0.661,0.644-1.24,1.114-1.735c0.47-0.495,1.023-0.885,1.66-1.168
		c0.637-0.283,1.314-0.425,2.032-0.425C6.993,495.75,7.675,495.89,8.312,496.167z M7.796,505.157
		c0.475-0.217,0.892-0.521,1.25-0.902s0.642-0.834,0.849-1.349c0.207-0.52,0.311-1.071,0.311-1.668c0-0.606-0.101-1.167-0.303-1.687
		c-0.202-0.516-0.48-0.963-0.833-1.342c-0.354-0.379-0.771-0.677-1.251-0.895c-0.48-0.221-0.998-0.326-1.554-0.326
		c-0.545,0-1.056,0.105-1.531,0.326c-0.475,0.218-0.892,0.519-1.25,0.898c-0.359,0.384-0.642,0.833-0.849,1.353
		c-0.207,0.516-0.311,1.067-0.311,1.668c0,0.597,0.104,1.15,0.311,1.675c0.207,0.521,0.49,0.971,0.849,1.35
		c0.358,0.379,0.775,0.682,1.25,0.896c0.475,0.218,0.986,0.325,1.531,0.325C6.811,505.482,7.321,505.375,7.796,505.157z"/>
	<circle fill="#F0F1F8" cx="6.265" cy="501.223" r="2.427"/>
</g>
<path fill="#E50E46" d="M18.735,297.771c-8.822,0-16-7.181-16-16c0-8.821,7.178-16,16-16c8.822,0,16,7.178,16,16
	C34.734,290.593,27.558,297.771,18.735,297.771z"/>
<path fill="#FFFFFF" d="M18.735,266.772c8.283,0,15,6.717,15,15c0,8.285-6.713,15-15,15c-8.283,0-15-6.715-15-15
	C3.735,273.489,10.452,266.772,18.735,266.772 M18.735,264.772c-9.374,0-17,7.626-17,17c0,9.375,7.626,17,17,17
	c9.375,0,17-7.625,17-17C35.734,272.398,28.109,264.772,18.735,264.772L18.735,264.772z"/>
<g id="_x31_OI23F.tif_6_">
	<g>
		<path fill="#FFFFFF" d="M29.018,277.114c-0.05,0.12-0.086,0.247-0.146,0.358c-0.203,0.368-0.533,0.541-0.945,0.549
			c-0.51,0.009-1.016,0.013-1.521-0.004c-0.193-0.009-0.277,0.059-0.344,0.239c-0.82,2.285-1.648,4.565-2.477,6.853
			c-0.203,0.556-0.541,0.798-1.127,0.798c-2.709,0-5.42,0-8.129-0.003c-0.137,0-0.275-0.019-0.412-0.03
			c-0.428-0.046-0.691-0.287-0.834-0.688c-0.52-1.435-1.039-2.867-1.561-4.301c-0.186-0.51-0.373-1.021-0.557-1.531
			c-0.277-0.787,0.199-1.447,1.029-1.447c3.924,0.001,7.848,0.001,11.771,0.006c0.172,0.004,0.24-0.063,0.289-0.211
			c0.084-0.268,0.201-0.518,0.275-0.779c0.139-0.488,0.404-0.854,0.91-1.002c0.967,0,1.934,0,2.904,0
			c0.443,0.141,0.734,0.436,0.875,0.875C29.018,276.898,29.018,277.009,29.018,277.114z M13.454,280.016
			c0.006,0.041,0.004,0.066,0.012,0.086c0.432,1.188,0.871,2.373,1.299,3.563c0.051,0.146,0.141,0.137,0.25,0.137
			c2.203,0,4.406-0.002,6.607,0.007c0.158,0.002,0.227-0.051,0.277-0.195c0.414-1.147,0.836-2.288,1.252-3.437
			c0.018-0.047,0.02-0.098,0.033-0.155C19.937,280.016,16.706,280.016,13.454,280.016z"/>
		<path fill="#FFFFFF" d="M12.114,288.113c0-0.825,0.686-1.506,1.514-1.506s1.516,0.683,1.516,1.5c0,0.842-0.684,1.531-1.514,1.526
			C12.792,289.637,12.114,288.954,12.114,288.113z"/>
		<path fill="#FFFFFF" d="M21.513,288.109c0-0.821,0.686-1.5,1.516-1.502c0.826,0,1.516,0.683,1.514,1.502
			c0,0.841-0.68,1.527-1.514,1.527C22.196,289.639,21.511,288.952,21.513,288.109z"/>
	</g>
</g>
<g>
	<g>
		<g>
			<path fill="#0068D2" d="M18.299,264.601c-8.822,0-16-7.178-16-16s7.178-16,16-16c8.822,0,16,7.178,16,16
				C34.299,257.423,27.121,264.601,18.299,264.601z"/>
			<path fill="#FFFFFF" d="M18.299,233.601c8.283,0,15,6.717,15,15c0,8.285-6.717,15-15,15c-8.283,0-15-6.715-15-15
				C3.299,240.317,10.016,233.601,18.299,233.601 M18.299,231.601c-9.374,0-17,7.626-17,17s7.626,17,17,17s17-7.626,17-17
				S27.673,231.601,18.299,231.601L18.299,231.601z"/>
		</g>
	</g>
	
		<polyline fill="none" stroke="#FFFFFF" stroke-width="2.5" stroke-linecap="round" stroke-linejoin="round" stroke-miterlimit="10" points="
		13.23,250.011 16.203,253.151 24.24,245.292 	"/>
</g>
<g>
	<g>
		<g>
			<path fill="#E50E46" d="M18.538,229.127c-8.547,0-15.5-6.953-15.5-15.5s6.953-15.5,15.5-15.5s15.5,6.953,15.5,15.5
				S27.084,229.127,18.538,229.127z"/>
			<path fill="#FFFFFF" d="M18.538,198.627c8.283,0,15,6.717,15,15c0,8.285-6.717,15-15,15c-8.283,0-15-6.715-15-15
				C3.538,205.344,10.254,198.627,18.538,198.627 M18.538,197.627c-8.822,0-16,7.178-16,16c0,8.822,7.178,16,16,16
				c8.822,0,16-7.178,16-16C34.538,204.805,27.36,197.627,18.538,197.627L18.538,197.627z"/>
		</g>
	</g>
	<g>
		<path fill="#FFFFFF" d="M18.589,209.333c1.286,0,2.573,0.003,3.859,0c1.527-0.003,2.257,0.819,2.293,2.284
			c0.031,1.341-0.031,2.685,0.012,4.027c0.054,1.637-0.888,2.424-2.333,2.48c-2.622,0.105-5.258,0.08-7.88,0.009
			c-1.256-0.034-2.129-0.731-2.172-2.089c-0.054-1.562-0.073-3.129-0.009-4.688c0.058-1.346,0.897-1.99,2.202-2.017
			C15.904,209.311,17.248,209.333,18.589,209.333z M20.526,213.68c-1.241-0.676-2.232-1.215-3.354-1.825c0,1.368,0,2.479,0,3.814
			C18.318,214.99,19.258,214.433,20.526,213.68z"/>
	</g>
</g>
</svg>
